<svg xmlns="http://www.w3.org/2000/svg" viewBox="0 0 64 64">
  <defs>
    <radialGradient id="petal" cx="42%" cy="30%" r="72%">
      <stop offset="0" stop-color="#3a3a3a"/>
      <stop offset="0.42" stop-color="#121212"/>
      <stop offset="1" stop-color="#020202"/>
    </radialGradient>
    <radialGradient id="petal-edge" cx="50%" cy="45%" r="70%">
      <stop offset="0" stop-color="#1b1b1b"/>
      <stop offset="1" stop-color="#000000"/>
    </radialGradient>
    <radialGradient id="heart" cx="44%" cy="36%" r="70%">
      <stop offset="0" stop-color="#8c1111"/>
      <stop offset="0.58" stop-color="#260000"/>
      <stop offset="1" stop-color="#050000"/>
    </radialGradient>
    <filter id="soft-shadow" x="-30%" y="-30%" width="160%" height="170%">
      <feDropShadow dx="0" dy="3" stdDeviation="2.4" flood-color="#000000" flood-opacity="0.46"/>
    </filter>
    <filter id="inner-depth" x="-20%" y="-20%" width="140%" height="140%">
      <feGaussianBlur in="SourceAlpha" stdDeviation="1.2" result="blur"/>
      <feOffset dx="0" dy="1.4" result="offset"/>
      <feComposite in="offset" in2="SourceAlpha" operator="arithmetic" k2="-1" k3="1" result="inner"/>
      <feColorMatrix in="inner" type="matrix" values="0 0 0 0 1 0 0 0 0 1 0 0 0 0 1 0 0 0 .18 0"/>
      <feComposite in2="SourceGraphic" operator="over"/>
    </filter>
  </defs>
  <g filter="url(#soft-shadow)">
    <path d="M31.9 31.7C22.8 22.9 23 12.1 32.4 6.3C42 11.8 41.3 22.8 31.9 31.7Z" fill="url(#petal)" stroke="#242424" stroke-width="1.8" filter="url(#inner-depth)"/>
    <path d="M34.2 33.1C45.6 26.8 55.2 30.8 58 40.7C50.8 49.1 40.9 43.9 34.2 33.1Z" fill="url(#petal-edge)" stroke="#232323" stroke-width="1.8" filter="url(#inner-depth)"/>
    <path d="M29.9 33.1C18.4 26.7 8.9 30.9 6 40.9C13.3 49.2 23.1 43.9 29.9 33.1Z" fill="url(#petal-edge)" stroke="#232323" stroke-width="1.8" filter="url(#inner-depth)"/>
    <path d="M31.1 36.4C23.1 45.8 24.5 55.2 34.2 58.3C42.3 51.3 40.2 42.1 31.1 36.4Z" fill="url(#petal)" stroke="#222222" stroke-width="1.8" filter="url(#inner-depth)"/>
    <path d="M32.3 28.4C27.1 22.2 27.9 14.8 32.6 10.5C37.3 15.1 36.8 22.1 32.3 28.4Z" fill="#050505" opacity="0.6"/>
    <circle cx="32" cy="33.1" r="8.4" fill="url(#heart)" stroke="#420707" stroke-width="1.8"/>
    <circle cx="32" cy="33.1" r="3.2" fill="#960606"/>
    <path d="M32.4 40.4C30.6 47.4 27.2 52.6 21.2 56.3" fill="none" stroke="#070707" stroke-width="3.4" stroke-linecap="round"/>
    <path d="M32.1 40.4C34 47.1 37.7 51.6 43.2 54.2" fill="none" stroke="#020202" stroke-width="2.3" stroke-linecap="round" opacity="0.86"/>
  </g>
</svg>
