<svg xmlns="http://www.w3.org/2000/svg" viewBox="0 0 64 64" width="64" height="64" version="1.1" preserveAspectRatio="xMidYMid meet">
  <title>Black flower favicon</title>
  <g transform="translate(2 2) scale(0.054)">
  <path d="M 466 1018 L 455 1019 L 448 1025 L 448 1028 L 456 1029 L 461 1027 Z M 195 596 L 198 612 L 205 623 L 214 628 L 226 629 L 226 627 L 215 623 L 204 612 L 200 599 Z M 1063 565 L 1055 566 L 1049 576 L 1058 575 L 1063 569 Z M 165 496 L 152 496 L 145 499 L 141 505 L 141 511 L 145 514 L 155 512 Z M 165 374 L 165 376 L 185 376 L 195 381 L 206 394 L 212 416 L 224 430 L 241 434 L 247 433 L 259 425 L 270 424 L 275 426 L 280 432 L 280 440 L 275 444 L 268 444 L 262 451 L 263 461 L 274 473 L 276 492 L 271 494 L 273 505 L 256 527 L 241 529 L 234 526 L 222 517 L 206 496 L 194 489 L 181 487 L 168 493 L 168 495 L 174 493 L 187 495 L 197 501 L 202 507 L 209 524 L 210 541 L 206 545 L 192 543 L 189 546 L 193 546 L 217 568 L 223 580 L 225 591 L 233 606 L 250 621 L 262 626 L 273 627 L 285 637 L 284 644 L 279 648 L 254 647 L 250 651 L 257 651 L 277 664 L 298 664 L 304 666 L 309 671 L 309 674 L 305 675 L 305 677 L 324 680 L 336 688 L 349 692 L 365 693 L 387 689 L 432 692 L 452 687 L 498 685 L 498 683 L 487 683 L 463 677 L 445 677 L 420 669 L 421 666 L 432 666 L 450 671 L 491 670 L 491 668 L 466 659 L 463 656 L 466 651 L 452 644 L 453 641 L 460 641 L 460 639 L 452 635 L 453 632 L 463 633 L 478 639 L 481 636 L 492 639 L 504 639 L 520 649 L 532 650 L 544 658 L 543 662 L 537 662 L 537 664 L 545 666 L 542 671 L 511 671 L 502 669 L 502 671 L 527 675 L 528 678 L 522 679 L 522 681 L 544 684 L 544 690 L 549 691 L 548 695 L 522 702 L 522 706 L 533 701 L 545 700 L 530 717 L 554 707 L 560 708 L 555 717 L 562 717 L 561 722 L 545 741 L 522 755 L 515 752 L 487 769 L 484 769 L 483 766 L 499 751 L 496 744 L 501 740 L 501 737 L 524 721 L 525 718 L 510 722 L 504 726 L 488 729 L 476 736 L 473 733 L 502 716 L 502 714 L 485 718 L 485 714 L 517 704 L 517 702 L 482 703 L 463 708 L 424 706 L 406 709 L 381 719 L 359 735 L 333 743 L 325 751 L 324 755 L 332 751 L 342 750 L 345 752 L 345 757 L 337 766 L 321 776 L 310 790 L 305 804 L 304 819 L 294 835 L 293 846 L 299 858 L 304 861 L 309 860 L 311 852 L 306 849 L 305 836 L 308 827 L 327 809 L 335 806 L 344 808 L 350 814 L 351 828 L 348 836 L 339 847 L 334 862 L 337 898 L 332 911 L 324 920 L 298 931 L 288 940 L 278 957 L 275 969 L 275 982 L 278 985 L 284 968 L 301 955 L 321 953 L 333 957 L 338 965 L 338 980 L 328 995 L 324 1006 L 325 1028 L 329 1037 L 338 1048 L 338 1059 L 335 1066 L 323 1075 L 317 1086 L 318 1099 L 314 1113 L 316 1113 L 320 1106 L 322 1094 L 328 1085 L 334 1080 L 347 1075 L 355 1064 L 356 1055 L 349 1043 L 347 1033 L 351 1022 L 358 1015 L 364 1014 L 365 1017 L 368 1017 L 381 1004 L 400 1000 L 431 982 L 441 982 L 446 986 L 443 995 L 457 988 L 478 987 L 490 982 L 508 966 L 518 964 L 522 968 L 522 974 L 519 980 L 507 992 L 502 1013 L 504 1013 L 507 1007 L 519 997 L 551 987 L 569 971 L 586 940 L 596 932 L 606 909 L 609 891 L 606 854 L 610 834 L 609 804 L 612 774 L 614 772 L 617 773 L 622 839 L 625 839 L 627 794 L 632 764 L 635 765 L 636 820 L 640 838 L 640 851 L 634 876 L 636 895 L 648 932 L 654 931 L 662 939 L 676 972 L 683 979 L 694 985 L 713 988 L 722 993 L 716 985 L 702 979 L 689 967 L 681 948 L 682 938 L 687 937 L 696 943 L 702 953 L 712 963 L 718 966 L 728 964 L 741 972 L 756 994 L 766 1003 L 783 1010 L 801 1011 L 807 1010 L 809 1007 L 798 1003 L 790 995 L 787 988 L 788 980 L 795 974 L 803 974 L 811 979 L 817 978 L 815 963 L 822 957 L 831 958 L 848 972 L 866 980 L 873 987 L 877 997 L 878 1011 L 886 1016 L 893 1033 L 903 1044 L 916 1050 L 931 1050 L 942 1057 L 948 1069 L 948 1082 L 953 1091 L 962 1097 L 955 1081 L 957 1057 L 954 1049 L 946 1042 L 932 1041 L 924 1037 L 911 1021 L 909 1006 L 916 992 L 921 995 L 919 984 L 926 966 L 926 947 L 917 926 L 893 907 L 885 889 L 885 876 L 891 862 L 898 856 L 909 855 L 919 860 L 928 870 L 930 884 L 926 901 L 929 908 L 933 911 L 940 911 L 948 903 L 950 897 L 949 881 L 936 862 L 934 841 L 927 825 L 924 808 L 911 788 L 913 781 L 920 781 L 932 788 L 946 802 L 954 821 L 952 842 L 957 850 L 961 850 L 964 844 L 964 834 L 954 816 L 953 795 L 945 776 L 931 760 L 920 753 L 907 736 L 896 728 L 879 721 L 852 717 L 843 710 L 827 704 L 810 701 L 795 701 L 781 704 L 763 700 L 731 700 L 731 702 L 751 708 L 752 711 L 748 712 L 748 714 L 764 723 L 765 726 L 745 725 L 716 711 L 705 701 L 706 698 L 716 699 L 716 697 L 703 694 L 701 690 L 707 682 L 722 679 L 724 674 L 733 672 L 733 670 L 710 671 L 703 663 L 709 662 L 706 657 L 711 652 L 724 649 L 741 638 L 758 635 L 779 626 L 787 626 L 788 629 L 782 634 L 764 637 L 764 639 L 784 638 L 784 642 L 769 649 L 769 651 L 780 650 L 781 653 L 774 657 L 757 660 L 753 665 L 764 664 L 776 667 L 793 667 L 794 670 L 760 679 L 738 679 L 738 681 L 755 681 L 768 684 L 788 683 L 797 687 L 815 690 L 852 687 L 870 693 L 892 695 L 906 692 L 918 686 L 937 683 L 946 678 L 951 670 L 948 670 L 938 676 L 920 677 L 913 673 L 914 667 L 920 662 L 944 658 L 960 647 L 988 642 L 1005 633 L 1020 614 L 1028 589 L 1012 602 L 1000 603 L 994 597 L 995 587 L 1002 578 L 1010 576 L 1016 567 L 1018 558 L 1027 549 L 1044 544 L 1057 534 L 1071 506 L 1072 484 L 1070 470 L 1072 462 L 1089 447 L 1082 448 L 1073 455 L 1063 471 L 1063 483 L 1058 495 L 1048 506 L 1037 511 L 1021 512 L 1014 511 L 1007 505 L 994 505 L 980 513 L 969 513 L 960 506 L 957 500 L 956 481 L 962 465 L 962 457 L 973 444 L 980 441 L 997 442 L 1009 431 L 1011 416 L 1021 404 L 1025 392 L 1024 381 L 1020 371 L 1022 359 L 1030 349 L 1046 340 L 1054 325 L 1038 339 L 1025 342 L 1014 350 L 1009 361 L 1012 374 L 1010 390 L 1003 399 L 996 403 L 982 404 L 974 402 L 973 398 L 969 396 L 948 394 L 934 397 L 909 412 L 894 411 L 890 408 L 891 402 L 872 404 L 854 416 L 847 416 L 845 414 L 846 406 L 862 387 L 876 380 L 884 378 L 900 379 L 906 377 L 906 375 L 896 376 L 873 372 L 850 379 L 838 388 L 825 403 L 804 414 L 789 430 L 773 470 L 765 480 L 758 483 L 743 504 L 730 534 L 698 588 L 680 606 L 669 605 L 671 591 L 692 551 L 690 541 L 688 541 L 677 570 L 664 589 L 653 596 L 652 586 L 650 586 L 646 595 L 642 597 L 638 582 L 638 568 L 645 542 L 652 534 L 650 518 L 654 518 L 654 527 L 656 527 L 659 507 L 670 496 L 669 524 L 672 525 L 677 517 L 681 518 L 679 531 L 672 534 L 668 547 L 673 548 L 671 557 L 673 557 L 678 546 L 692 529 L 702 527 L 702 535 L 704 535 L 719 513 L 732 486 L 745 474 L 756 455 L 761 441 L 761 429 L 769 407 L 774 403 L 781 385 L 783 358 L 777 326 L 767 313 L 764 304 L 762 304 L 765 328 L 762 336 L 755 339 L 746 330 L 745 309 L 751 296 L 751 277 L 747 264 L 737 247 L 733 223 L 726 208 L 706 192 L 708 199 L 718 210 L 721 219 L 721 231 L 718 235 L 715 235 L 708 229 L 693 206 L 684 198 L 664 187 L 657 188 L 646 185 L 633 174 L 630 167 L 621 165 L 610 154 L 606 145 L 605 134 L 611 117 L 609 100 L 615 84 L 612 84 L 602 96 L 599 115 L 585 140 L 584 151 L 588 164 L 588 186 L 583 200 L 574 208 L 570 224 L 560 235 L 554 238 L 542 239 L 535 236 L 528 226 L 528 211 L 536 199 L 537 186 L 531 178 L 526 178 L 518 184 L 514 195 L 516 217 L 510 230 L 504 235 L 498 252 L 499 264 L 503 274 L 503 284 L 497 304 L 488 316 L 480 319 L 475 313 L 475 307 L 479 300 L 477 298 L 464 320 L 458 347 L 458 370 L 464 394 L 474 412 L 479 414 L 490 430 L 513 491 L 522 503 L 526 503 L 578 601 L 578 604 L 573 608 L 562 605 L 565 617 L 558 616 L 562 622 L 561 625 L 552 623 L 537 614 L 520 590 L 498 565 L 485 559 L 471 545 L 474 542 L 487 552 L 496 555 L 520 575 L 523 575 L 532 582 L 522 563 L 527 563 L 535 572 L 537 572 L 536 565 L 513 531 L 500 502 L 482 482 L 476 464 L 469 463 L 463 456 L 446 424 L 426 404 L 416 398 L 396 391 L 359 391 L 351 387 L 342 377 L 329 372 L 323 372 L 323 374 L 333 378 L 345 395 L 343 399 L 339 399 L 316 388 L 291 387 L 279 393 L 268 395 L 261 404 L 255 407 L 241 409 L 226 402 L 220 396 L 210 378 L 197 369 L 182 368 Z M 548 834 L 547 842 L 542 852 L 539 853 L 539 847 L 545 835 Z M 638 750 L 642 752 L 642 756 L 644 756 L 645 750 L 649 752 L 658 771 L 665 794 L 664 799 L 658 795 L 659 812 L 656 811 L 652 800 L 647 775 L 645 775 L 646 792 L 642 792 L 636 761 L 636 752 Z M 610 751 L 611 767 L 604 801 L 600 801 L 601 787 L 599 787 L 595 802 L 587 814 L 575 841 L 572 838 L 587 781 L 585 781 L 577 799 L 573 803 L 568 800 L 563 807 L 560 806 L 562 793 L 559 793 L 558 789 L 561 784 L 561 776 L 570 760 L 568 758 L 544 782 L 536 798 L 524 810 L 516 811 L 499 822 L 484 838 L 477 849 L 468 857 L 465 856 L 479 834 L 480 827 L 485 819 L 494 810 L 504 805 L 517 788 L 514 783 L 519 774 L 532 762 L 537 761 L 545 753 L 553 740 L 569 730 L 578 729 L 579 733 L 573 747 L 573 751 L 575 751 L 588 734 L 594 737 L 595 748 L 588 776 L 590 776 L 599 754 L 602 753 L 605 756 L 606 751 Z M 655 736 L 662 733 L 676 750 L 678 748 L 673 740 L 671 728 L 678 732 L 683 730 L 697 739 L 709 754 L 723 763 L 729 772 L 728 777 L 734 787 L 741 794 L 756 802 L 768 814 L 777 831 L 774 832 L 753 812 L 722 799 L 712 790 L 707 777 L 680 754 L 681 759 L 691 774 L 690 780 L 684 777 L 687 785 L 686 794 L 693 819 L 690 820 L 662 775 L 654 748 Z M 687 708 L 689 706 L 702 707 L 727 719 L 732 724 L 729 729 L 746 743 L 754 756 L 751 757 L 731 747 L 726 750 L 705 739 L 688 720 L 689 712 Z M 821 662 L 820 665 L 810 668 L 802 667 L 807 662 Z M 412 633 L 422 633 L 434 637 L 435 640 L 418 638 L 413 636 Z M 401 570 L 405 569 L 421 578 L 443 582 L 454 592 L 468 598 L 476 597 L 488 601 L 487 595 L 496 593 L 520 609 L 531 612 L 541 620 L 550 631 L 549 634 L 544 634 L 544 636 L 550 639 L 551 642 L 527 643 L 513 634 L 505 633 L 493 622 L 464 616 L 454 611 L 453 606 L 443 596 L 415 585 Z M 855 558 L 838 575 L 824 583 L 804 589 L 796 594 L 782 610 L 756 619 L 743 630 L 722 640 L 699 642 L 699 639 L 704 634 L 700 629 L 713 617 L 733 609 L 758 592 L 765 594 L 779 590 L 791 584 L 800 576 L 827 571 L 841 565 L 852 557 Z M 747 536 L 748 539 L 719 582 L 726 576 L 731 580 L 747 571 L 750 574 L 734 590 L 733 596 L 717 613 L 696 625 L 688 627 L 686 625 L 688 619 L 685 618 L 689 605 L 710 575 L 743 538 Z M 772 519 L 773 523 L 760 535 L 756 536 L 755 532 Z M 565 475 L 568 476 L 573 491 L 578 498 L 586 525 L 588 525 L 586 518 L 587 507 L 590 508 L 593 516 L 595 536 L 606 560 L 608 585 L 604 597 L 596 589 L 596 597 L 591 598 L 579 587 L 566 569 L 551 534 L 545 514 L 546 510 L 549 511 L 559 531 L 561 531 L 561 522 L 564 521 L 572 539 L 571 544 L 579 556 L 579 560 L 581 560 L 574 539 L 573 529 L 570 528 L 567 521 L 568 514 L 572 513 L 572 506 L 565 487 Z M 675 474 L 676 483 L 674 490 L 671 491 L 672 475 Z M 523 447 L 526 448 L 532 462 L 535 481 L 532 480 L 522 453 Z M 615 366 L 618 367 L 623 390 L 623 408 L 620 417 L 619 435 L 628 462 L 627 489 L 629 497 L 635 496 L 637 502 L 634 526 L 637 558 L 629 586 L 622 586 L 621 588 L 618 587 L 610 563 L 609 546 L 611 531 L 606 513 L 606 502 L 611 501 L 609 477 L 612 463 L 612 454 L 607 439 L 607 425 L 610 411 L 613 410 L 615 396 L 613 377 Z" fill="#000000" fill-rule="evenodd"/>
  </g>
</svg>

