<svg xmlns="http://www.w3.org/2000/svg" viewBox="0 0 832.53 1010.76" width="833" height="1011"><path d="M 707.24 965.18 L 701.97 968.08 L 696.53 970.61 L 691.09 973.15 L 685.65 975.68 L 680.46 977.56 L 675.25 979.40 L 670.40 980.83 L 665.12 982.50 L 659.74 984.01 L 655.14 984.95 L 650.44 986.03 L 645.59 986.78 L 640.53 987.76 L 635.74 988.48 L 631.23 989.12 L 626.43 989.51 L 621.72 990.02 L 617.42 990.27 L 612.35 990.56 L 607.72 990.76 L 603.26 990.66 L 598.79 990.54 L 594.32 990.42 L 589.85 990.29 L 585.38 990.17 L 580.85 989.93 L 576.79 989.49 L 572.69 989.00 L 567.95 988.28 L 564.08 987.69 L 559.63 987.00 L 555.40 986.22 L 551.12 985.33 L 547.25 984.50 L 542.65 983.33 L 538.71 982.37 L 534.90 981.29 L 530.54 980.16 L 526.52 978.72 L 522.23 977.41 L 518.29 976.43 L 514.32 975.03 L 510.34 973.58 L 506.21 971.82 L 502.56 970.03 L 498.62 968.56 L 494.78 967.04 L 490.93 965.10 L 486.85 963.44 L 483.01 961.50 L 479.32 959.91 L 475.46 957.94 L 471.35 955.90 L 468.02 954.14 L 463.81 951.88 L 460.50 949.92 L 456.36 947.44 L 453.05 945.67 L 448.91 943.19 L 445.57 941.16 L 441.72 938.82 L 437.87 936.48 L 434.57 934.43 L 430.73 931.81 L 426.88 929.19 L 423.58 927.13 L 419.97 924.69 L 416.23 922.02 L 412.49 919.35 L 408.85 916.85 L 405.61 914.62 L 401.97 912.12 L 398.40 909.37 L 394.55 906.75 L 390.88 904.05 L 387.45 901.72 L 383.98 898.99 L 380.50 896.27 L 377.07 893.94 L 373.45 891.21 L 369.90 888.46 L 366.04 885.84 L 362.49 883.08 L 358.99 880.30 L 355.49 877.52 L 351.86 874.80 L 348.44 872.46 L 344.96 869.75 L 341.59 867.24 L 337.95 864.73 L 334.38 861.98 L 330.53 859.37 L 326.98 856.61 L 323.35 853.89 L 319.95 851.61 L 316.55 849.33 L 312.88 846.63 L 309.03 844.02 L 305.35 841.32 L 302.06 839.26 L 298.22 836.92 L 294.47 834.25 L 290.83 831.75 L 287.59 829.53 L 283.73 827.13 L 279.87 824.51 L 276.47 822.24 L 273.06 819.96 L 269.22 817.34 L 265.37 814.72 L 261.97 812.45 L 258.57 810.17 L 254.90 807.47 L 251.04 804.85 L 247.37 802.15 L 243.94 799.82 L 240.47 797.10 L 236.99 794.37 L 233.56 792.04 L 229.94 789.32 L 226.44 786.54 L 222.93 783.76 L 219.43 780.98 L 215.93 778.20 L 212.43 775.41 L 209.05 772.57 L 205.44 769.30 L 201.82 766.02 L 198.50 763.15 L 195.35 760.20 L 192.00 757.04 L 188.35 753.54 L 185.44 750.48 L 181.82 746.65 L 178.92 743.59 L 175.30 739.76 L 172.40 736.70 L 168.96 732.79 L 165.76 729.16 L 162.89 725.69 L 159.65 721.69 L 156.52 717.63 L 153.50 713.52 L 150.53 709.38 L 147.65 705.21 L 144.80 701.03 L 141.55 695.92 L 138.86 691.66 L 136.06 687.45 L 133.33 682.10 L 130.60 676.75 L 127.81 672.54 L 125.24 667.11 L 122.70 661.68 L 120.17 656.24 L 117.63 650.80 L 115.76 645.61 L 113.89 640.41 L 112.02 635.21 L 110.34 629.93 L 108.94 625.06 L 107.57 620.18 L 106.36 615.23 L 105.16 610.28 L 104.01 605.30 L 103.01 600.24 L 102.06 595.17 L 101.46 591.03 L 100.62 585.91 L 100.08 581.21 L 99.71 576.40 L 99.35 572.16 L 98.80 566.90 L 98.73 562.52 L 98.52 558.20 L 98.57 553.77 L 98.37 549.16 L 98.39 544.47 L 98.64 540.28 L 99.06 535.88 L 99.20 531.40 L 99.56 526.82 L 100.20 522.32 L 100.58 518.41 L 101.24 513.90 L 101.92 509.45 L 102.53 505.58 L 103.47 500.93 L 104.28 497.04 L 105.17 492.76 L 106.11 488.46 L 107.26 484.61 L 108.24 480.42 L 109.65 476.33 L 111.05 472.24 L 112.04 468.04 L 113.34 464.13 L 114.79 460.14 L 116.24 456.15 L 117.69 452.17 L 119.16 448.17 L 121.10 444.10 L 122.70 440.44 L 124.16 436.46 L 125.68 432.62 L 127.62 428.78 L 129.17 424.75 L 130.29 420.91 L 131.38 416.45 L 132.20 412.30 L 132.86 407.79 L 133.22 403.83 L 133.31 399.29 L 132.98 394.28 L 132.51 390.08 L 131.88 384.86 L 131.12 380.41 L 130.40 375.62 L 129.31 370.61 L 128.21 365.61 L 127.06 360.63 L 125.75 355.72 L 124.43 350.82 L 123.08 345.93 L 121.10 340.24 L 119.53 335.45 L 117.67 330.25 L 115.79 325.06 L 113.26 319.62 L 110.72 314.18 L 108.19 308.74 L 105.29 303.47 L 102.64 299.19 L 99.74 293.93 L 97.05 289.66 L 94.22 285.47 L 91.20 281.36 L 88.18 277.25 L 85.11 273.17 L 81.86 269.16 L 78.72 265.66 L 75.46 262.22 L 72.20 258.78 L 68.75 255.42 L 65.62 252.46 L 62.27 249.32 L 58.67 246.32 L 55.16 243.54 L 51.66 240.77 L 48.29 238.26 L 44.60 235.78 L 40.61 233.23 L 37.27 231.20 L 33.42 228.86 L 29.53 226.43 L 26.15 223.42 L 23.30 219.23 L 20.93 213.72 L 20.01 208.63 L 20.00 204.22 L 20.29 199.67 L 21.02 196.02 L 22.10 191.56 L 23.07 187.34 L 24.38 183.42 L 26.13 179.30 L 27.94 175.69 L 29.84 172.05 L 32.18 168.22 L 34.85 164.48 L 37.63 160.97 L 40.41 157.48 L 43.30 154.22 L 47.23 150.81 L 50.36 148.06 L 54.96 144.89 L 59.73 142.12 L 65.35 139.97 L 69.50 139.41 L 73.94 139.35 L 78.33 140.61 L 82.17 142.13 L 86.03 144.10 L 90.14 146.14 L 93.46 147.90 L 97.64 150.36 L 100.95 152.13 L 104.98 154.66 L 108.66 157.14 L 111.91 159.37 L 115.54 161.88 L 119.06 164.65 L 122.56 167.43 L 126.07 170.21 L 129.57 172.99 L 132.94 175.83 L 136.65 179.31 L 140.00 182.47 L 143.02 185.47 L 146.64 189.30 L 149.55 192.36 L 153.14 196.20 L 156.13 199.78 L 159.05 203.38 L 162.30 207.38 L 165.43 211.44 L 168.45 215.55 L 171.41 219.68 L 174.29 223.85 L 177.26 228.54 L 180.04 233.31 L 182.93 238.58 L 185.59 242.86 L 188.13 248.30 L 190.67 253.73 L 193.20 259.17 L 195.73 264.61 L 197.30 269.40 L 199.47 275.01 L 201.05 279.79 L 203.03 285.48 L 204.43 290.35 L 205.82 295.21 L 207.20 300.09 L 208.67 305.36 L 209.42 310.09 L 209.70 314.66 L 209.68 319.35 L 209.56 323.82 L 209.53 328.51 L 209.79 333.09 L 210.15 337.33 L 210.71 342.59 L 211.07 346.83 L 211.84 351.99 L 212.38 356.15 L 213.34 361.22 L 214.44 366.23 L 215.70 371.16 L 217.05 376.04 L 219.03 381.74 L 220.60 386.52 L 223.13 391.97 L 225.66 397.40 L 228.20 402.84 L 230.77 408.26 L 233.56 412.48 L 236.65 417.66 L 239.67 421.77 L 242.57 425.38 L 245.50 428.98 L 248.74 432.98 L 252.17 436.90 L 255.08 439.96 L 258.73 443.46 L 262.08 446.62 L 265.21 449.58 L 268.57 452.74 L 272.27 456.21 L 275.59 459.08 L 278.76 462.02 L 282.19 464.83 L 285.60 467.97 L 289.25 471.47 L 292.16 474.53 L 295.58 478.45 L 298.66 482.53 L 301.48 486.73 L 304.30 491.50 L 306.71 496.43 L 308.28 501.21 L 310.13 506.38 L 311.33 511.30 L 312.17 515.95 L 312.74 521.20 L 312.76 525.61 L 312.81 530.00 L 312.54 534.53 L 312.08 538.95 L 311.70 542.86 L 311.06 547.37 L 310.58 552.00 L 310.13 556.07 L 309.69 560.14 L 309.40 564.69 L 308.93 569.32 L 308.76 573.82 L 308.63 578.29 L 308.52 582.75 L 308.61 587.12 L 308.84 591.43 L 309.13 596.50 L 309.39 601.10 L 309.75 605.35 L 310.36 610.58 L 310.90 614.75 L 311.85 619.82 L 312.84 624.87 L 313.83 629.93 L 315.02 634.89 L 316.39 639.77 L 317.78 644.64 L 319.18 649.50 L 321.52 655.03 L 323.39 660.23 L 325.27 665.42 L 327.80 670.86 L 330.37 676.28 L 333.16 680.50 L 335.92 685.83 L 338.72 690.04 L 341.69 694.72 L 344.82 699.33 L 347.84 703.44 L 350.75 707.05 L 353.67 710.65 L 357.03 714.60 L 360.29 718.05 L 363.55 721.50 L 366.71 724.73 L 370.42 728.22 L 373.58 731.16 L 376.86 734.05 L 380.36 736.83 L 383.86 739.61 L 387.37 742.39 L 391.09 745.06 L 394.83 747.73 L 398.44 750.18 L 401.78 752.21 L 405.89 754.72 L 409.23 756.75 L 413.08 759.09 L 416.82 761.20 L 420.67 763.27 L 424.17 765.13 L 428.31 766.90 L 432.38 768.84 L 436.03 770.45 L 439.68 772.06 L 443.75 773.99 L 447.75 775.47 L 451.73 776.92 L 455.72 778.37 L 459.71 779.82 L 463.67 781.23 L 467.62 782.20 L 471.91 783.51 L 475.92 784.95 L 480.28 786.09 L 484.11 787.20 L 487.94 788.31 L 492.41 789.40 L 496.63 790.37 L 500.47 791.52 L 504.69 792.50 L 509.16 793.59 L 512.97 794.66 L 516.91 795.63 L 521.20 796.94 L 525.49 798.25 L 529.44 799.22 L 533.40 800.63 L 537.39 802.08 L 541.39 803.55 L 545.46 805.49 L 548.97 807.16 L 552.82 809.13 L 556.89 811.19 L 560.24 813.22 L 563.90 815.64 L 567.77 818.25 L 571.34 821.00 L 574.98 823.54 L 578.45 826.51 L 581.83 829.35 L 585.27 832.16 L 588.43 835.10 L 591.78 838.26 L 595.43 841.77 L 598.34 844.82 L 601.93 848.66 L 604.86 852.11 L 608.06 855.74 L 611.31 859.74 L 614.55 863.74 L 617.51 867.41 L 620.47 871.39 L 623.42 875.05 L 626.59 879.10 L 629.47 883.27 L 632.65 887.30 L 635.73 891.38 L 638.86 895.44 L 642.15 899.43 L 645.28 903.48 L 648.04 906.61 L 651.42 910.55 L 654.85 914.47 L 657.93 917.44 L 661.17 920.82 L 664.58 924.27 L 668.18 927.01 L 670.01 925.57 L 667.76 921.69 L 664.93 917.04 L 662.10 912.19 L 659.45 907.91 L 656.56 902.64 L 653.93 897.24 L 651.09 893.05 L 648.46 887.65 L 645.93 882.21 L 643.39 876.78 L 640.86 871.34 L 638.32 865.90 L 635.79 860.46 L 633.05 855.12 L 630.26 850.90 L 627.69 845.48 L 625.03 841.20 L 621.94 836.02 L 619.06 831.85 L 616.16 827.69 L 613.25 823.53 L 610.17 819.45 L 606.93 815.44 L 603.67 811.44 L 600.81 808.36 L 597.16 804.85 L 593.98 801.62 L 590.71 798.73 L 587.23 795.94 L 583.92 793.07 L 580.22 790.38 L 576.47 787.72 L 572.64 785.38 L 569.10 783.43 L 565.25 781.36 L 561.35 779.32 L 557.52 777.80 L 553.68 776.27 L 549.83 774.33 L 545.80 772.78 L 541.81 771.33 L 537.85 769.92 L 533.90 768.95 L 529.61 767.64 L 525.32 766.33 L 521.37 765.36 L 517.43 764.00 L 513.48 763.02 L 509.09 761.76 L 504.89 760.78 L 500.98 759.47 L 497.01 758.07 L 493.06 757.10 L 488.78 755.78 L 484.79 754.34 L 480.80 752.88 L 476.81 751.43 L 472.83 749.98 L 468.84 748.53 L 465.00 747.01 L 461.16 745.07 L 457.07 743.41 L 453.23 741.46 L 449.73 739.79 L 445.51 737.54 L 442.00 735.67 L 438.15 733.60 L 434.41 731.48 L 430.56 729.14 L 427.26 727.09 L 423.42 724.47 L 419.68 721.80 L 416.04 719.30 L 412.66 716.79 L 409.15 713.99 L 405.55 710.74 L 402.18 707.90 L 398.90 705.01 L 395.75 702.07 L 392.07 698.26 L 389.17 695.21 L 385.55 691.37 L 382.73 688.28 L 379.60 684.22 L 376.31 680.24 L 373.29 676.13 L 370.33 671.99 L 367.45 667.82 L 364.52 662.56 L 361.73 658.35 L 359.16 652.93 L 356.62 647.49 L 354.09 642.05 L 351.55 636.61 L 349.05 631.16 L 347.62 626.31 L 345.94 621.03 L 344.42 615.66 L 343.05 610.79 L 341.82 605.84 L 340.78 600.81 L 339.97 596.39 L 339.25 591.59 L 338.46 586.45 L 337.98 582.25 L 337.64 577.21 L 337.38 572.61 L 337.13 568.31 L 336.87 563.73 L 336.90 559.04 L 337.02 554.57 L 337.14 550.10 L 337.26 545.63 L 337.51 541.44 L 337.93 537.04 L 338.29 532.46 L 338.76 527.83 L 339.31 523.98 L 339.99 519.53 L 340.67 515.09 L 341.46 511.12 L 342.35 506.84 L 343.28 502.55 L 344.25 498.79 L 345.38 494.42 L 346.68 490.11 L 347.66 486.16 L 349.06 482.20 L 350.51 478.21 L 351.96 474.22 L 353.41 470.24 L 354.86 466.25 L 356.32 462.26 L 357.77 458.28 L 359.52 454.15 L 361.31 450.50 L 362.85 446.71 L 364.80 442.86 L 366.45 438.78 L 368.40 434.94 L 370.07 431.43 L 372.11 427.31 L 374.08 423.46 L 375.76 419.96 L 378.00 415.74 L 379.83 412.13 L 381.64 408.53 L 383.70 404.26 L 385.49 400.61 L 386.97 396.67 L 388.57 393.02 L 390.51 388.94 L 391.97 384.95 L 393.09 381.12 L 394.23 376.75 L 395.53 372.44 L 396.35 368.56 L 397.24 364.29 L 398.03 360.06 L 398.68 355.54 L 398.94 351.36 L 399.06 346.89 L 399.18 342.42 L 399.20 337.72 L 398.76 333.24 L 398.16 328.39 L 397.34 323.97 L 396.28 318.95 L 394.91 314.07 L 392.73 308.47 L 390.19 303.03 L 387.66 297.59 L 385.03 292.19 L 382.19 288.00 L 380.34 283.08 L 380.11 277.94 L 381.55 273.96 L 384.42 270.54 L 387.37 267.40 L 390.94 264.06 L 394.42 261.23 L 399.03 258.08 L 403.79 255.28 L 408.00 252.48 L 413.51 250.11 L 418.30 248.54 L 423.09 246.98 L 428.37 245.51 L 433.01 244.59 L 438.13 243.74 L 442.43 243.49 L 447.28 243.31 L 451.71 243.45 L 455.84 243.86 L 460.48 244.34 L 464.92 245.01 L 468.79 245.60 L 473.48 246.19 L 477.78 245.95 L 482.69 244.65 L 486.88 241.80 L 490.16 238.76 L 493.66 235.04 L 496.50 231.67 L 499.30 228.22 L 502.24 225.05 L 505.10 221.74 L 508.59 218.03 L 511.83 214.86 L 515.26 211.61 L 518.64 208.18 L 522.03 205.14 L 525.61 201.82 L 529.18 198.49 L 532.65 195.63 L 536.66 192.38 L 540.71 189.26 L 544.85 186.29 L 549.01 183.38 L 553.13 180.39 L 558.44 177.57 L 562.63 174.73 L 568.02 172.11 L 573.46 169.57 L 578.90 167.04 L 584.51 164.86 L 589.30 163.32 L 594.16 161.90 L 599.05 160.55 L 604.11 159.56 L 609.27 158.82 L 613.57 158.57 L 618.06 158.15 L 622.76 158.17 L 627.18 158.32 L 631.32 158.78 L 636.07 159.50 L 639.84 160.13 L 644.14 161.44 L 648.15 162.88 L 652.37 164.22 L 656.14 165.78 L 659.75 167.40 L 663.98 169.66 L 667.28 171.61 L 671.26 174.17 L 674.92 176.88 L 678.43 179.66 L 681.76 182.51 L 684.80 185.51 L 688.39 189.35 L 691.49 193.43 L 694.15 197.70 L 695.93 202.67 L 696.55 207.62 L 696.62 212.00 L 695.98 216.71 L 694.84 220.55 L 692.89 224.57 L 690.86 227.92 L 688.41 231.51 L 685.07 235.04 L 681.55 238.09 L 676.20 240.82 L 671.44 242.50 L 666.24 242.72 L 662.30 241.78 L 658.27 240.24 L 654.42 238.30 L 650.28 236.91 L 646.36 235.99 L 642.34 235.10 L 638.02 234.65 L 633.55 234.53 L 628.71 234.84 L 624.09 235.55 L 619.15 236.78 L 613.62 239.12 L 608.18 241.65 L 602.78 244.28 L 598.61 247.15 L 594.45 250.06 L 590.41 253.25 L 586.47 256.62 L 583.39 259.48 L 580.08 263.03 L 576.80 266.65 L 573.96 270.01 L 571.10 273.35 L 568.38 276.98 L 565.68 280.65 L 563.63 283.94 L 561.29 287.80 L 559.17 291.54 L 557.05 295.28 L 555.04 298.98 L 553.39 303.06 L 551.44 306.91 L 549.92 310.75 L 548.47 314.73 L 547.02 318.72 L 545.71 323.01 L 544.78 326.94 L 543.86 330.88 L 542.88 335.55 L 542.10 339.22 L 541.34 343.99 L 540.75 347.86 L 540.30 352.20 L 540.16 356.67 L 540.04 361.14 L 539.92 365.61 L 539.93 370.03 L 540.21 375.11 L 540.64 379.62 L 540.95 383.89 L 541.74 389.04 L 542.62 394.15 L 543.80 399.11 L 545.01 404.06 L 546.49 408.89 L 547.87 413.77 L 550.28 419.26 L 551.71 424.11 L 554.05 429.64 L 556.68 435.04 L 559.52 439.23 L 562.15 444.62 L 564.92 449.40 L 567.73 454.16 L 570.52 458.37 L 573.45 463.63 L 576.24 467.84 L 579.01 473.17 L 581.80 477.39 L 584.37 482.81 L 586.90 488.25 L 589.24 493.78 L 590.68 498.63 L 592.82 504.25 L 594.20 509.12 L 595.43 514.06 L 596.47 519.10 L 597.28 523.52 L 597.88 528.37 L 598.43 533.08 L 598.95 537.80 L 599.18 542.11 L 599.19 546.54 L 599.26 551.42 L 599.12 555.86 L 598.70 559.98 L 598.46 564.51 L 598.10 569.09 L 597.43 573.54 L 596.84 577.40 L 596.12 582.15 L 595.53 586.02 L 594.84 590.47 L 594.06 594.70 L 593.17 598.97 L 592.39 602.94 L 591.70 607.38 L 590.91 611.61 L 590.13 615.84 L 589.47 620.35 L 589.09 624.26 L 588.44 628.76 L 588.09 633.34 L 587.84 637.87 L 587.43 642.00 L 587.28 646.41 L 587.17 650.90 L 587.35 655.75 L 587.60 660.05 L 588.02 664.57 L 588.39 669.61 L 589.14 674.07 L 589.75 678.91 L 590.79 683.94 L 591.99 688.90 L 593.31 693.80 L 594.66 698.69 L 596.75 704.33 L 598.32 709.12 L 600.85 714.56 L 603.39 720.00 L 605.95 725.42 L 608.74 729.63 L 611.83 734.81 L 614.58 739.05 L 617.52 743.20 L 620.65 747.25 L 623.94 751.24 L 626.75 754.34 L 629.79 756.23 L 628.79 751.18 L 626.38 745.69 L 623.86 740.24 L 621.32 734.80 L 618.79 729.36 L 616.92 724.17 L 615.08 718.96 L 613.65 714.10 L 612.28 709.23 L 611.07 704.27 L 609.95 699.28 L 609.13 694.15 L 608.41 689.36 L 607.65 684.91 L 607.07 679.66 L 606.84 675.35 L 606.73 670.99 L 606.52 666.39 L 606.54 661.70 L 606.69 657.28 L 607.11 653.16 L 607.40 648.61 L 607.99 643.92 L 608.49 639.84 L 609.17 635.65 L 609.96 631.16 L 610.74 627.19 L 611.63 622.92 L 612.52 618.64 L 613.35 614.76 L 614.61 610.37 L 615.58 606.18 L 616.56 602.41 L 617.68 598.03 L 618.80 593.64 L 619.78 589.88 L 620.70 585.58 L 621.63 581.29 L 622.72 577.47 L 625.91 575.45 L 629.05 578.93 L 632.30 582.94 L 635.44 586.43 L 638.72 589.87 L 641.86 592.82 L 645.46 596.08 L 648.95 598.83 L 652.37 601.16 L 656.05 603.86 L 660.02 606.42 L 663.36 608.45 L 667.32 610.74 L 670.86 612.69 L 674.81 614.97 L 678.35 616.93 L 681.95 619.36 L 685.47 622.14 L 688.97 624.92 L 692.34 627.76 L 696.02 631.56 L 698.92 634.62 L 702.19 638.62 L 705.09 642.78 L 707.85 647.06 L 711.60 650.36 L 711.78 646.02 L 709.97 640.50 L 708.55 635.65 L 706.04 630.20 L 703.39 625.92 L 700.30 620.74 L 697.31 616.61 L 694.10 612.59 L 691.25 609.51 L 687.58 605.71 L 684.21 602.86 L 680.71 600.08 L 677.19 597.31 L 673.55 594.80 L 670.20 592.36 L 666.78 590.03 L 663.16 587.30 L 659.67 584.51 L 656.26 581.38 L 652.61 577.88 L 649.70 574.82 L 646.28 570.90 L 643.31 566.77 L 640.43 562.59 L 637.81 557.19 L 635.27 551.76 L 632.83 546.28 L 631.53 541.36 L 630.32 536.41 L 629.12 531.46 L 628.19 526.37 L 627.43 521.92 L 626.82 517.08 L 625.95 511.97 L 625.08 507.41 L 624.17 502.87 L 622.66 497.50 L 621.15 492.14 L 619.61 487.34 L 618.18 482.49 L 615.84 476.96 L 613.37 471.49 L 614.14 467.39 L 618.62 467.94 L 622.50 468.76 L 627.06 469.52 L 630.97 469.91 L 635.47 470.55 L 640.05 470.91 L 644.52 471.03 L 649.00 471.17 L 653.34 471.61 L 657.21 472.20 L 661.98 472.97 L 665.74 473.93 L 669.93 474.91 L 674.02 476.31 L 677.96 477.79 L 681.61 479.58 L 685.88 481.65 L 689.18 483.59 L 693.16 486.15 L 696.71 488.90 L 700.21 491.68 L 703.48 494.57 L 706.70 497.88 L 710.16 501.39 L 713.85 503.76 L 713.00 498.96 L 710.24 494.73 L 707.30 489.48 L 704.29 485.37 L 701.45 481.89 L 698.12 478.31 L 694.97 475.10 L 691.36 472.09 L 687.88 469.37 L 684.41 467.06 L 680.26 464.58 L 676.76 462.90 L 672.92 460.95 L 668.89 459.41 L 665.06 458.28 L 660.59 457.20 L 656.40 456.27 L 652.43 455.49 L 647.99 454.80 L 643.53 454.12 L 639.67 453.52 L 634.90 452.76 L 631.23 451.98 L 626.87 450.86 L 622.86 449.41 L 618.87 447.96 L 615.04 446.44 L 611.14 444.40 L 607.41 442.27 L 603.67 439.60 L 600.06 436.87 L 596.61 434.07 L 593.68 431.02 L 590.26 427.10 L 587.02 423.10 L 583.98 419.00 L 581.31 414.72 L 578.77 409.29 L 576.23 403.85 L 573.70 398.41 L 571.36 392.88 L 569.95 388.02 L 568.58 383.14 L 567.43 378.16 L 566.45 373.10 L 565.79 368.45 L 565.27 363.72 L 565.02 359.43 L 564.83 354.55 L 564.64 349.67 L 564.65 345.26 L 565.07 340.86 L 565.45 336.94 L 565.93 332.52 L 566.76 327.92 L 567.57 324.03 L 568.51 319.86 L 569.92 315.77 L 571.37 311.78 L 572.82 307.79 L 574.34 303.96 L 576.31 300.10 L 578.37 296.03 L 580.40 292.67 L 582.84 289.07 L 585.62 285.55 L 588.40 282.06 L 591.75 278.55 L 595.23 275.41 L 599.29 272.28 L 603.46 269.38 L 608.28 267.89 L 613.32 266.88 L 617.79 266.99 L 621.90 267.80 L 625.95 269.23 L 629.60 271.02 L 633.87 273.08 L 637.37 274.94 L 641.18 276.92 L 645.24 278.99 L 648.60 281.01 L 652.45 283.35 L 656.30 285.69 L 659.64 287.72 L 663.63 290.27 L 667.31 292.75 L 670.56 294.98 L 674.24 297.46 L 678.11 300.07 L 681.79 302.77 L 685.21 305.10 L 688.69 307.83 L 692.19 310.61 L 695.69 313.39 L 699.21 316.19 L 702.81 319.45 L 706.18 322.29 L 709.46 325.17 L 712.62 328.11 L 716.32 331.60 L 719.68 334.76 L 722.69 337.76 L 726.31 341.59 L 729.22 344.65 L 732.81 348.49 L 735.80 352.06 L 738.78 355.64 L 742.19 359.57 L 745.42 363.57 L 748.47 367.67 L 751.32 371.86 L 754.21 376.03 L 757.12 380.19 L 760.00 384.36 L 763.09 389.54 L 765.74 393.82 L 768.64 399.09 L 771.29 403.37 L 773.84 408.80 L 776.38 414.24 L 778.91 419.68 L 781.45 425.12 L 783.98 430.55 L 786.51 436.00 L 788.08 440.78 L 790.25 446.39 L 791.83 451.17 L 793.91 456.82 L 795.29 461.69 L 796.77 466.52 L 798.28 471.86 L 799.50 476.83 L 800.70 481.79 L 801.88 486.68 L 802.81 491.29 L 803.99 496.26 L 804.97 501.31 L 805.96 506.37 L 806.67 511.16 L 807.43 515.61 L 808.06 520.83 L 808.54 525.03 L 809.31 530.18 L 809.68 534.43 L 810.23 539.68 L 810.70 543.88 L 811.05 548.94 L 811.48 553.45 L 811.72 557.75 L 812.01 562.82 L 812.22 567.45 L 812.33 571.81 L 812.43 576.17 L 812.33 580.63 L 812.53 585.24 L 812.51 589.93 L 812.39 594.40 L 812.27 598.87 L 812.23 603.53 L 812.13 608.05 L 811.90 612.29 L 811.78 616.75 L 811.66 621.22 L 811.53 625.69 L 811.28 629.88 L 810.86 634.28 L 810.72 638.76 L 810.38 643.33 L 810.02 647.91 L 809.60 652.31 L 809.32 656.45 L 808.91 660.57 L 808.44 665.20 L 808.08 669.78 L 807.66 674.18 L 807.28 678.10 L 806.86 682.49 L 806.50 687.07 L 806.04 691.70 L 805.59 695.77 L 805.10 699.86 L 804.49 704.56 L 804.00 708.91 L 803.46 712.76 L 802.99 717.40 L 802.52 722.03 L 801.97 725.87 L 801.31 730.32 L 800.83 734.96 L 800.28 738.81 L 799.79 743.16 L 799.18 747.86 L 798.69 751.95 L 798.20 756.04 L 797.59 760.74 L 797.10 765.10 L 796.51 768.97 L 795.79 773.72 L 795.30 777.81 L 794.81 781.90 L 794.20 786.59 L 793.70 790.95 L 793.12 794.82 L 792.40 799.57 L 791.80 803.44 L 791.12 807.89 L 790.44 812.34 L 789.85 816.21 L 789.13 820.96 L 788.50 824.75 L 787.52 829.43 L 786.73 833.11 L 785.75 837.78 L 784.93 841.67 L 784.04 845.95 L 783.11 850.24 L 782.14 854.01 L 781.02 858.39 L 779.89 862.78 L 778.77 866.61 L 777.34 870.59 L 776.22 874.42 L 775.08 878.79 L 773.64 882.80 L 772.17 886.74 L 770.38 890.39 L 768.62 894.51 L 766.87 898.64 L 765.07 902.28 L 763.44 905.88 L 760.98 910.08 L 759.19 913.34 L 756.60 917.24 L 754.20 921.10 L 751.97 924.35 L 749.47 927.98 L 746.70 931.50 L 743.91 934.98 L 740.78 938.39 L 737.27 942.04 L 734.21 944.95 L 730.38 948.57 L 727.30 951.42 L 723.28 954.63 L 719.16 957.62 L 714.47 960.59 L 709.74 963.45 Z M 326.51 456.31 L 325.73 457.02 L 324.79 457.36 L 324.29 457.34 L 323.65 457.27 L 322.75 456.95 L 322.30 456.75 L 321.61 456.38 L 320.81 455.92 L 320.56 455.77 L 319.53 455.14 L 319.27 454.99 L 318.50 454.52 L 317.73 454.05 L 317.47 453.90 L 316.45 453.27 L 316.19 453.11 L 315.42 452.65 L 314.65 452.18 L 314.39 452.02 L 313.37 451.40 L 313.10 451.23 L 312.35 450.77 L 311.54 450.25 L 311.36 450.13 L 310.40 449.47 L 309.92 449.14 L 309.45 448.81 L 308.49 448.15 L 308.30 448.03 L 307.51 447.51 L 306.71 446.99 L 306.52 446.86 L 305.58 446.20 L 305.06 445.82 L 304.67 445.52 L 303.78 444.83 L 303.34 444.48 L 302.90 444.14 L 302.03 443.44 L 301.59 443.10 L 301.15 442.75 L 300.28 442.05 L 299.84 441.71 L 299.40 441.36 L 298.53 440.66 L 298.08 440.32 L 297.64 439.97 L 296.77 439.27 L 296.33 438.93 L 295.89 438.58 L 295.03 437.88 L 294.57 437.51 L 294.16 437.18 L 293.33 436.47 L 292.73 435.93 L 292.52 435.74 L 291.74 435.00 L 290.97 434.26 L 290.76 434.07 L 290.16 433.53 L 289.33 432.81 L 288.90 432.46 L 288.48 432.11 L 287.65 431.39 L 287.05 430.84 L 286.85 430.66 L 286.09 429.91 L 285.35 429.15 L 284.98 428.77 L 284.61 428.40 L 283.87 427.64 L 283.12 426.89 L 282.90 426.68 L 282.33 426.15 L 281.55 425.41 L 280.89 424.75 L 280.80 424.66 L 280.09 423.88 L 279.41 423.09 L 278.71 422.32 L 278.61 422.22 L 277.96 421.57 L 277.20 420.82 L 276.55 420.16 L 276.45 420.06 L 275.75 419.28 L 275.09 418.49 L 274.44 417.69 L 274.11 417.29 L 273.78 416.90 L 273.13 416.10 L 272.48 415.29 L 271.82 414.50 L 271.57 414.22 L 271.12 413.72 L 270.43 412.94 L 269.73 412.16 L 269.25 411.60 L 269.05 411.38 L 268.42 410.57 L 267.83 409.74 L 267.24 408.91 L 266.63 408.09 L 266.31 407.66 L 266.01 407.28 L 265.42 406.45 L 264.86 405.61 L 264.33 404.75 L 263.78 403.91 L 263.18 403.08 L 262.88 402.67 L 262.57 402.26 L 261.97 401.44 L 261.42 400.59 L 260.89 399.74 L 260.33 398.89 L 259.74 398.06 L 259.43 397.65 L 259.13 397.25 L 258.54 396.42 L 258.01 395.56 L 257.53 394.68 L 257.09 393.78 L 256.65 392.89 L 256.20 391.99 L 255.72 391.11 L 255.19 390.25 L 254.61 389.42 L 254.30 389.01 L 253.99 388.61 L 253.41 387.78 L 252.88 386.92 L 252.40 386.04 L 251.96 385.14 L 251.53 384.24 L 251.10 383.33 L 250.68 382.43 L 250.26 381.52 L 249.83 380.62 L 249.41 379.71 L 248.99 378.80 L 248.56 377.90 L 248.14 376.99 L 247.72 376.08 L 247.30 375.18 L 246.87 374.27 L 246.45 373.37 L 246.03 372.46 L 245.61 371.55 L 245.19 370.65 L 244.77 369.74 L 244.37 368.82 L 244.01 367.89 L 243.69 366.93 L 243.43 365.95 L 243.31 365.45 L 243.20 364.95 L 242.94 363.97 L 242.62 363.02 L 242.26 362.08 L 241.86 361.16 L 241.47 360.24 L 241.11 359.31 L 240.79 358.35 L 240.53 357.37 L 240.42 356.87 L 240.30 356.37 L 240.04 355.39 L 239.73 354.43 L 239.39 353.49 L 239.05 352.54 L 238.74 351.58 L 238.48 350.60 L 238.37 350.11 L 238.25 349.61 L 238.00 348.62 L 237.70 347.65 L 237.39 346.70 L 237.10 345.73 L 236.85 344.74 L 236.74 344.27 L 236.63 343.74 L 236.39 342.75 L 236.13 341.77 L 235.87 340.78 L 235.64 339.79 L 235.56 339.35 L 235.44 338.78 L 235.24 337.77 L 235.03 336.76 L 234.83 335.75 L 234.71 335.18 L 234.63 334.74 L 234.40 333.75 L 234.14 332.76 L 233.89 331.78 L 233.67 330.78 L 233.63 330.48 L 233.51 329.75 L 233.36 328.72 L 233.21 327.68 L 233.11 327.02 L 233.06 326.65 L 232.88 325.63 L 232.69 324.62 L 232.51 323.60 L 232.45 323.23 L 232.36 322.56 L 232.22 321.52 L 232.09 320.48 L 232.03 319.97 L 231.98 319.43 L 231.87 318.38 L 231.78 317.31 L 231.76 317.02 L 231.72 316.24 L 231.67 315.16 L 231.63 314.37 L 231.62 314.08 L 231.53 313.02 L 231.42 311.97 L 231.37 311.44 L 231.31 310.91 L 231.21 309.86 L 231.12 308.80 L 231.10 308.51 L 231.06 307.72 L 231.01 306.64 L 230.97 305.86 L 230.96 305.56 L 230.89 304.49 L 230.82 303.42 L 230.81 303.14 L 230.78 302.33 L 230.77 301.24 L 230.78 300.71 L 230.79 300.12 L 230.81 299.01 L 230.83 298.45 L 230.85 297.89 L 230.87 296.77 L 230.89 296.21 L 230.91 295.65 L 230.93 294.54 L 230.95 293.98 L 230.97 293.42 L 230.99 292.30 L 231.01 291.74 L 231.03 291.18 L 231.05 290.07 L 231.07 289.51 L 231.09 288.95 L 231.11 287.83 L 231.13 287.27 L 231.15 286.71 L 231.18 285.60 L 231.20 285.04 L 231.22 284.48 L 231.25 283.36 L 231.28 282.86 L 231.32 282.22 L 231.42 281.07 L 231.45 280.85 L 231.56 279.90 L 231.67 278.96 L 231.70 278.73 L 231.81 277.58 L 231.86 277.00 L 231.91 276.43 L 232.02 275.27 L 232.05 275.05 L 232.18 274.10 L 232.30 273.22 L 232.35 272.91 L 232.52 271.73 L 232.57 271.43 L 232.71 270.54 L 232.85 269.65 L 232.89 269.35 L 233.07 268.17 L 233.12 267.86 L 233.25 266.98 L 233.39 266.09 L 233.44 265.79 L 233.61 264.60 L 233.66 264.30 L 233.80 263.41 L 233.94 262.53 L 233.99 262.22 L 234.20 261.02 L 234.24 260.81 L 234.45 259.80 L 234.58 259.18 L 234.72 258.57 L 234.93 257.57 L 234.98 257.34 L 235.22 256.13 L 235.26 255.91 L 235.47 254.91 L 235.61 254.29 L 235.75 253.67 L 235.96 252.68 L 236.01 252.45 L 236.26 251.23 L 236.30 251.03 L 236.55 249.99 L 236.69 249.50 L 236.92 248.72 L 237.12 248.07 L 237.33 247.42 L 237.56 246.64 L 237.70 246.14 L 237.95 245.11 L 238.00 244.90 L 238.25 243.68 L 238.30 243.48 L 238.55 242.44 L 238.68 241.95 L 238.92 241.16 L 239.13 240.54 L 239.37 239.85 L 239.61 239.19 L 239.85 238.52 L 240.09 237.86 L 240.33 237.19 L 240.57 236.53 L 240.81 235.87 L 241.06 235.20 L 241.30 234.54 L 241.54 233.87 L 241.78 233.21 L 242.02 232.54 L 242.26 231.88 L 242.51 231.21 L 242.75 230.55 L 242.99 229.89 L 243.23 229.22 L 243.47 228.56 L 243.72 227.89 L 243.96 227.23 L 244.20 226.56 L 244.44 225.90 L 244.68 225.23 L 244.93 224.57 L 245.17 223.91 L 245.41 223.24 L 245.65 222.58 L 245.89 221.91 L 246.13 221.25 L 246.38 220.58 L 246.62 219.92 L 246.86 219.25 L 247.10 218.59 L 247.34 217.93 L 247.59 217.26 L 247.83 216.60 L 248.07 215.93 L 248.31 215.27 L 248.55 214.60 L 248.79 213.94 L 249.04 213.27 L 249.28 212.61 L 249.52 211.95 L 249.76 211.28 L 250.00 210.62 L 250.25 209.95 L 250.49 209.29 L 250.73 208.62 L 250.97 207.96 L 251.21 207.29 L 251.45 206.63 L 251.70 205.96 L 251.93 205.30 L 252.17 204.61 L 252.38 203.99 L 252.62 203.21 L 252.76 202.71 L 253.01 201.67 L 253.05 201.47 L 253.30 200.25 L 253.35 200.05 L 253.59 199.01 L 253.73 198.49 L 253.93 197.75 L 254.14 197.01 L 254.28 196.49 L 254.52 195.45 L 254.56 195.25 L 254.81 194.03 L 254.85 193.81 L 255.07 192.81 L 255.20 192.19 L 255.34 191.58 L 255.55 190.56 L 255.59 190.36 L 255.80 189.16 L 255.85 188.84 L 255.99 187.96 L 256.13 187.07 L 256.18 186.77 L 256.35 185.59 L 256.40 185.29 L 256.54 184.40 L 256.67 183.51 L 256.72 183.21 L 256.89 182.03 L 256.94 181.72 L 257.07 180.84 L 257.19 179.88 L 257.22 179.67 L 257.32 178.52 L 257.36 177.88 L 257.39 177.38 L 257.42 176.26 L 257.44 175.70 L 257.46 175.14 L 257.49 174.03 L 257.51 173.46 L 257.52 172.90 L 257.55 171.79 L 257.57 171.23 L 257.58 170.67 L 257.61 169.55 L 257.63 168.99 L 257.65 168.43 L 257.67 167.32 L 257.68 166.74 L 257.69 166.21 L 257.67 165.11 L 257.65 164.30 L 257.64 164.02 L 257.57 162.95 L 257.49 161.88 L 257.48 161.58 L 257.44 160.80 L 257.39 159.73 L 257.35 158.94 L 257.34 158.65 L 257.25 157.59 L 257.14 156.53 L 257.08 156.00 L 257.03 155.48 L 256.91 154.44 L 256.78 153.39 L 256.73 152.86 L 256.67 152.34 L 256.54 151.30 L 256.40 150.26 L 256.30 149.59 L 256.25 149.22 L 256.07 148.21 L 255.88 147.19 L 255.70 146.17 L 255.64 145.81 L 255.54 145.14 L 255.40 144.10 L 255.25 143.07 L 255.13 142.34 L 255.08 142.05 L 254.87 141.04 L 254.61 140.06 L 254.36 139.07 L 254.12 138.08 L 254.01 137.58 L 253.90 137.08 L 253.67 136.08 L 253.41 135.10 L 253.15 134.12 L 252.91 133.13 L 252.81 132.62 L 252.70 132.12 L 252.46 131.13 L 252.20 130.15 L 251.94 129.17 L 251.71 128.17 L 251.59 127.65 L 251.48 127.17 L 251.23 126.19 L 250.94 125.22 L 250.63 124.26 L 250.34 123.29 L 250.08 122.31 L 249.97 121.80 L 249.85 121.31 L 249.59 120.33 L 249.28 119.37 L 248.91 118.44 L 248.51 117.52 L 248.11 116.61 L 247.71 115.69 L 247.34 114.76 L 247.03 113.80 L 246.77 112.82 L 246.65 112.32 L 246.53 111.83 L 246.27 110.85 L 245.96 109.89 L 245.59 108.96 L 245.19 108.04 L 244.78 107.13 L 244.36 106.22 L 243.93 105.32 L 243.51 104.41 L 243.09 103.50 L 242.67 102.60 L 242.24 101.69 L 241.82 100.78 L 241.40 99.88 L 240.97 98.97 L 240.55 98.07 L 240.13 97.16 L 239.71 96.25 L 239.29 95.35 L 238.87 94.44 L 238.47 93.52 L 238.11 92.59 L 237.79 91.63 L 237.53 90.65 L 237.41 90.15 L 237.30 89.65 L 237.04 88.67 L 236.72 87.72 L 236.35 86.78 L 235.96 85.86 L 235.55 84.95 L 235.15 84.03 L 234.79 83.10 L 234.50 82.13 L 234.30 81.12 L 234.30 81.12 L 234.20 80.06 L 234.18 78.97 L 234.20 78.53 L 234.24 77.84 L 234.38 76.67 L 234.39 76.57 L 234.62 75.45 L 234.75 74.98 L 234.99 74.18 L 235.20 73.57 L 235.46 72.86 L 235.69 72.26 L 236.01 71.49 L 236.22 71.03 L 236.71 70.06 L 236.80 69.90 L 237.42 68.86 L 237.62 68.54 L 238.06 67.87 L 238.73 66.95 L 238.78 66.90 L 239.44 66.10 L 240.17 65.30 L 240.40 65.03 L 240.90 64.49 L 241.63 63.71 L 242.30 63.05 L 242.39 62.96 L 243.16 62.26 L 243.96 61.60 L 244.76 60.95 L 245.22 60.58 L 245.56 60.30 L 246.38 59.69 L 247.21 59.10 L 248.04 58.52 L 248.86 57.91 L 249.29 57.58 L 249.67 57.29 L 250.50 56.70 L 251.35 56.16 L 252.22 55.66 L 253.09 55.16 L 253.95 54.62 L 254.78 54.03 L 255.19 53.73 L 255.59 53.42 L 256.42 52.84 L 257.28 52.31 L 258.16 51.83 L 259.06 51.38 L 259.96 50.95 L 260.86 50.53 L 261.77 50.10 L 262.68 49.68 L 263.58 49.26 L 264.49 48.84 L 265.40 48.42 L 266.31 48.00 L 267.22 47.60 L 268.16 47.24 L 269.11 46.92 L 270.09 46.66 L 270.59 46.54 L 271.09 46.43 L 272.07 46.17 L 273.03 45.86 L 273.98 45.52 L 274.92 45.17 L 275.88 44.87 L 276.87 44.62 L 277.27 44.53 L 277.87 44.41 L 278.88 44.20 L 279.89 44.00 L 280.90 43.80 L 281.41 43.71 L 281.92 43.61 L 282.93 43.42 L 283.93 43.21 L 284.95 43.02 L 285.45 42.92 L 285.96 42.83 L 286.98 42.63 L 287.99 42.43 L 289.01 42.25 L 289.36 42.20 L 290.04 42.11 L 291.09 41.98 L 292.15 41.90 L 292.41 41.88 L 293.23 41.85 L 294.33 41.83 L 294.88 41.84 L 295.43 41.84 L 296.53 41.83 L 297.30 41.81 L 297.62 41.81 L 298.71 41.77 L 299.75 41.77 L 299.81 41.77 L 300.95 41.83 L 301.82 41.91 L 302.10 41.94 L 303.25 42.04 L 303.80 42.09 L 304.40 42.15 L 305.58 42.30 L 305.68 42.32 L 306.80 42.55 L 307.27 42.68 L 308.07 42.92 L 308.69 43.12 L 309.38 43.37 L 310.03 43.60 L 310.72 43.86 L 311.32 44.10 L 312.09 44.44 L 312.53 44.64 L 313.55 45.21 L 313.61 45.24 L 314.55 45.90 L 315.25 46.49 L 315.40 46.61 L 316.17 47.36 L 316.89 48.13 L 317.40 48.72 L 317.56 48.91 L 318.17 49.73 L 318.71 50.59 L 319.18 51.47 L 319.60 52.38 L 319.98 53.31 L 320.29 54.26 L 320.55 55.25 L 320.63 55.65 L 320.75 56.25 L 320.96 57.26 L 321.17 58.27 L 321.36 59.28 L 321.46 59.79 L 321.55 60.30 L 321.74 61.31 L 321.94 62.32 L 322.12 63.34 L 322.18 63.70 L 322.28 64.37 L 322.42 65.41 L 322.56 66.44 L 322.66 67.11 L 322.72 67.48 L 322.90 68.49 L 323.10 69.50 L 323.29 70.52 L 323.39 71.03 L 323.48 71.53 L 323.68 72.55 L 323.88 73.55 L 324.08 74.56 L 324.20 75.14 L 324.29 75.57 L 324.52 76.57 L 324.77 77.55 L 325.03 78.53 L 325.26 79.53 L 325.35 79.97 L 325.46 80.54 L 325.66 81.55 L 325.87 82.55 L 326.08 83.56 L 326.20 84.16 L 326.28 84.57 L 326.53 85.56 L 326.82 86.53 L 327.13 87.48 L 327.42 88.45 L 327.68 89.44 L 327.79 89.94 L 327.90 90.43 L 328.16 91.42 L 328.45 92.39 L 328.76 93.35 L 329.05 94.31 L 329.31 95.30 L 329.42 95.80 L 329.54 96.29 L 329.80 97.28 L 330.11 98.23 L 330.48 99.16 L 330.88 100.08 L 331.29 100.99 L 331.71 101.90 L 332.14 102.80 L 332.56 103.71 L 332.98 104.62 L 333.40 105.52 L 333.83 106.43 L 334.25 107.34 L 334.68 108.24 L 335.13 109.13 L 335.61 110.01 L 336.14 110.87 L 336.73 111.70 L 336.98 112.00 L 337.37 112.50 L 338.04 113.29 L 338.74 114.07 L 339.26 114.53 L 339.56 114.79 L 340.53 115.44 L 340.87 115.62 L 341.69 116.01 L 342.26 116.24 L 342.96 116.51 L 343.60 116.75 L 344.31 116.99 L 344.91 117.18 L 345.76 117.41 L 346.16 117.51 L 347.34 117.67 L 347.56 117.68 L 348.46 117.69 L 349.52 117.61 L 350.34 117.49 L 350.55 117.46 L 351.55 117.22 L 352.51 116.92 L 353.44 116.55 L 354.36 116.15 L 355.27 115.74 L 356.17 115.31 L 357.07 114.86 L 357.94 114.37 L 358.79 113.82 L 359.53 113.20 L 359.58 113.16 L 360.32 112.38 L 361.02 111.50 L 361.11 111.36 L 361.66 110.52 L 362.11 109.79 L 362.29 109.49 L 362.89 108.41 L 362.94 108.30 L 363.42 107.20 L 363.52 106.93 L 363.84 105.72 L 363.85 105.67 L 364.00 104.49 L 364.06 103.83 L 364.09 103.35 L 364.13 102.23 L 364.15 101.66 L 364.17 101.11 L 364.19 99.99 L 364.20 99.41 L 364.21 98.88 L 364.20 97.78 L 364.17 96.98 L 364.17 96.70 L 364.10 95.63 L 364.03 94.55 L 364.02 94.27 L 363.99 93.47 L 363.98 92.37 L 363.99 91.84 L 364.00 91.26 L 364.02 90.15 L 364.03 89.56 L 364.04 89.03 L 364.02 87.94 L 364.00 87.13 L 363.99 86.85 L 363.92 85.78 L 363.85 84.71 L 363.84 84.43 L 363.81 83.62 L 363.80 82.52 L 363.81 82.00 L 363.82 81.41 L 363.84 80.30 L 363.86 79.74 L 363.88 79.17 L 363.92 78.05 L 363.95 77.56 L 363.99 76.92 L 364.09 75.77 L 364.11 75.55 L 364.22 74.60 L 364.33 73.66 L 364.36 73.43 L 364.46 72.29 L 364.50 71.65 L 364.53 71.15 L 364.57 70.03 L 364.59 69.47 L 364.61 68.91 L 364.65 67.78 L 364.67 67.29 L 364.72 66.65 L 364.81 65.50 L 364.84 65.28 L 364.95 64.33 L 365.06 63.39 L 365.09 63.16 L 365.20 62.01 L 365.25 61.43 L 365.31 60.86 L 365.42 59.70 L 365.45 59.48 L 365.57 58.53 L 365.70 57.65 L 365.74 57.34 L 365.92 56.16 L 365.96 55.86 L 366.10 54.97 L 366.24 54.08 L 366.29 53.78 L 366.46 52.59 L 366.51 52.29 L 366.65 51.40 L 366.78 50.52 L 366.83 50.21 L 367.01 49.03 L 367.05 48.73 L 367.19 47.84 L 367.33 46.95 L 367.38 46.65 L 367.55 45.47 L 367.60 45.17 L 367.74 44.27 L 367.88 43.40 L 367.93 43.08 L 368.14 41.88 L 368.18 41.68 L 368.39 40.66 L 368.52 40.05 L 368.66 39.43 L 368.87 38.43 L 368.92 38.21 L 369.17 36.99 L 369.21 36.79 L 369.46 35.75 L 369.60 35.26 L 369.84 34.47 L 370.05 33.85 L 370.29 33.15 L 370.53 32.51 L 370.79 31.82 L 371.03 31.23 L 371.40 30.43 L 371.59 30.06 L 372.22 29.05 L 372.35 28.88 L 372.92 28.18 L 373.67 27.42 L 374.28 26.88 L 374.45 26.73 L 375.26 26.11 L 376.11 25.55 L 376.96 25.02 L 377.82 24.49 L 378.68 23.96 L 379.55 23.46 L 380.45 23.04 L 381.39 22.69 L 382.35 22.38 L 383.31 22.06 L 384.26 21.75 L 385.23 21.45 L 386.22 21.21 L 386.63 21.12 L 387.22 21.00 L 388.23 20.80 L 389.24 20.60 L 390.26 20.42 L 390.62 20.37 L 391.30 20.27 L 392.34 20.15 L 393.41 20.06 L 393.67 20.05 L 394.49 20.01 L 395.59 20.00 L 396.11 20.01 L 396.70 20.02 L 397.81 20.04 L 398.37 20.06 L 398.93 20.08 L 400.05 20.10 L 400.60 20.12 L 401.17 20.14 L 402.29 20.18 L 402.79 20.21 L 403.43 20.25 L 404.58 20.35 L 404.79 20.38 L 405.75 20.50 L 406.62 20.63 L 406.93 20.67 L 408.12 20.85 L 408.42 20.89 L 409.31 21.03 L 410.18 21.17 L 410.50 21.23 L 411.71 21.44 L 411.89 21.48 L 412.94 21.73 L 413.43 21.86 L 414.22 22.10 L 414.84 22.31 L 415.53 22.55 L 416.19 22.78 L 416.86 23.03 L 417.52 23.27 L 418.19 23.51 L 418.85 23.75 L 419.52 24.00 L 420.17 24.24 L 420.85 24.50 L 421.46 24.74 L 422.22 25.06 L 422.68 25.27 L 423.65 25.76 L 423.81 25.85 L 424.87 26.46 L 425.16 26.63 L 425.90 27.09 L 426.73 27.63 L 426.88 27.73 L 427.78 28.41 L 428.47 28.99 L 428.62 29.13 L 429.39 29.87 L 430.10 30.64 L 430.62 31.24 L 430.78 31.43 L 431.39 32.25 L 431.93 33.10 L 432.40 33.98 L 432.84 34.88 L 433.25 35.79 L 433.61 36.73 L 433.90 37.70 L 434.07 38.64 L 434.08 38.72 L 434.14 39.79 L 434.07 40.93 L 434.06 40.98 L 433.85 42.14 L 433.72 42.63 L 433.52 43.39 L 433.32 44.13 L 433.18 44.65 L 432.94 45.68 L 432.89 45.89 L 432.64 47.11 L 432.60 47.31 L 432.35 48.35 L 432.21 48.85 L 431.98 49.63 L 431.77 50.28 L 431.57 50.92 L 431.33 51.70 L 431.20 52.20 L 430.95 53.24 L 430.90 53.44 L 430.65 54.66 L 430.60 54.87 L 430.36 55.90 L 430.22 56.42 L 430.02 57.16 L 429.81 57.91 L 429.67 58.42 L 429.43 59.46 L 429.39 59.66 L 429.14 60.88 L 429.10 61.10 L 428.89 62.10 L 428.75 62.72 L 428.61 63.33 L 428.40 64.35 L 428.36 64.55 L 428.16 65.75 L 428.10 66.07 L 427.96 66.95 L 427.82 67.84 L 427.78 68.14 L 427.60 69.32 L 427.55 69.62 L 427.42 70.51 L 427.28 71.40 L 427.23 71.70 L 427.06 72.89 L 427.01 73.19 L 426.87 74.08 L 426.73 74.97 L 426.69 75.27 L 426.51 76.45 L 426.47 76.76 L 426.34 77.63 L 426.22 78.59 L 426.19 78.81 L 426.09 79.96 L 426.05 80.60 L 426.02 81.09 L 425.98 82.21 L 425.96 82.78 L 425.94 83.34 L 425.92 84.45 L 425.90 85.01 L 425.88 85.57 L 425.86 86.69 L 425.84 87.25 L 425.82 87.81 L 425.80 88.92 L 425.79 89.50 L 425.78 90.03 L 425.79 91.13 L 425.82 91.95 L 425.83 92.21 L 425.92 93.28 L 426.03 94.33 L 426.08 94.87 L 426.14 95.38 L 426.27 96.42 L 426.41 97.46 L 426.54 98.22 L 426.59 98.48 L 426.83 99.47 L 427.14 100.43 L 427.50 101.37 L 427.90 102.28 L 428.32 103.19 L 428.77 104.09 L 429.25 104.96 L 429.81 105.81 L 430.45 106.61 L 430.46 106.61 L 431.20 107.37 L 432.02 108.08 L 432.37 108.35 L 432.93 108.77 L 433.91 109.41 L 433.99 109.46 L 435.00 110.01 L 435.45 110.21 L 436.22 110.54 L 436.81 110.78 L 437.53 111.04 L 438.13 111.24 L 438.93 111.48 L 439.41 111.61 L 440.53 111.84 L 440.63 111.86 L 441.79 111.99 L 442.48 112.04 L 442.93 112.06 L 444.03 112.06 L 444.86 112.03 L 445.12 112.02 L 446.18 111.93 L 447.22 111.80 L 448.03 111.66 L 448.24 111.62 L 449.22 111.36 L 450.15 110.99 L 451.03 110.51 L 451.86 109.93 L 452.03 109.79 L 452.66 109.26 L 453.43 108.55 L 454.17 107.78 L 454.30 107.63 L 454.88 106.93 L 455.54 105.99 L 455.57 105.93 L 456.14 104.91 L 456.35 104.47 L 456.68 103.70 L 456.92 103.09 L 457.18 102.41 L 457.43 101.76 L 457.67 101.09 L 457.92 100.42 L 458.16 99.77 L 458.42 99.09 L 458.66 98.48 L 458.98 97.72 L 459.19 97.25 L 459.67 96.30 L 459.77 96.11 L 460.36 95.01 L 460.45 94.83 L 460.93 93.87 L 461.14 93.41 L 461.46 92.65 L 461.70 92.04 L 461.96 91.36 L 462.21 90.70 L 462.45 90.04 L 462.71 89.36 L 462.95 88.75 L 463.28 87.99 L 463.49 87.53 L 463.96 86.57 L 464.06 86.39 L 464.65 85.29 L 464.74 85.10 L 465.22 84.15 L 465.43 83.68 L 465.75 82.92 L 466.00 82.31 L 466.26 81.64 L 466.52 80.97 L 466.76 80.36 L 467.08 79.60 L 467.29 79.13 L 467.77 78.17 L 467.87 77.99 L 468.46 76.90 L 468.57 76.70 L 469.05 75.80 L 469.34 75.24 L 469.63 74.68 L 470.12 73.77 L 470.22 73.58 L 470.84 72.53 L 471.00 72.26 L 471.46 71.49 L 471.92 70.72 L 472.08 70.46 L 472.71 69.44 L 472.86 69.18 L 473.33 68.41 L 473.80 67.64 L 473.95 67.38 L 474.58 66.36 L 474.74 66.10 L 475.21 65.34 L 475.73 64.53 L 475.85 64.35 L 476.50 63.39 L 476.84 62.91 L 477.16 62.44 L 477.82 61.49 L 477.95 61.29 L 478.47 60.50 L 478.98 59.71 L 479.11 59.51 L 479.77 58.56 L 480.10 58.08 L 480.43 57.61 L 481.09 56.65 L 481.21 56.46 L 481.73 55.67 L 482.25 54.87 L 482.38 54.68 L 483.04 53.75 L 483.44 53.21 L 483.72 52.85 L 484.43 52.00 L 484.97 51.40 L 485.16 51.19 L 485.90 50.41 L 486.64 49.64 L 486.85 49.42 L 487.38 48.85 L 488.11 48.05 L 488.65 47.48 L 488.85 47.26 L 489.60 46.51 L 490.36 45.77 L 490.75 45.39 L 491.12 45.04 L 491.89 44.32 L 492.66 43.62 L 493.25 43.12 L 493.45 42.95 L 494.27 42.34 L 495.13 41.81 L 496.01 41.33 L 496.90 40.88 L 497.81 40.45 L 498.71 40.03 L 499.62 39.60 L 500.53 39.19 L 501.45 38.79 L 502.38 38.43 L 503.35 38.14 L 504.36 37.94 L 504.38 37.93 L 505.41 37.82 L 506.47 37.74 L 507.24 37.70 L 507.55 37.69 L 508.62 37.61 L 509.69 37.54 L 509.97 37.53 L 510.78 37.51 L 511.88 37.51 L 512.34 37.53 L 513.01 37.57 L 514.16 37.66 L 514.37 37.69 L 515.33 37.81 L 516.21 37.94 L 516.52 37.98 L 517.70 38.16 L 518.00 38.20 L 518.89 38.34 L 519.76 38.48 L 520.08 38.54 L 521.29 38.75 L 521.47 38.79 L 522.52 39.04 L 523.01 39.17 L 523.80 39.41 L 524.42 39.62 L 525.12 39.86 L 525.77 40.10 L 526.44 40.34 L 527.10 40.58 L 527.77 40.82 L 528.43 41.06 L 529.10 41.30 L 529.76 41.55 L 530.43 41.79 L 531.08 42.03 L 531.77 42.29 L 532.37 42.53 L 533.13 42.86 L 533.60 43.07 L 534.56 43.56 L 534.73 43.64 L 535.78 44.25 L 536.07 44.42 L 536.81 44.88 L 537.63 45.40 L 537.81 45.52 L 538.75 46.18 L 539.27 46.56 L 539.67 46.85 L 540.55 47.55 L 541.00 47.90 L 541.44 48.24 L 542.30 48.94 L 542.76 49.31 L 543.16 49.64 L 543.98 50.36 L 544.67 51.03 L 544.75 51.11 L 545.45 51.88 L 546.11 52.68 L 546.76 53.48 L 547.14 53.97 L 547.39 54.29 L 547.99 55.11 L 548.52 55.97 L 548.99 56.85 L 549.43 57.75 L 549.84 58.66 L 550.21 59.60 L 550.51 60.56 L 550.75 61.55 L 550.79 61.80 L 550.92 62.57 L 551.05 63.61 L 551.14 64.68 L 551.15 64.94 L 551.18 65.76 L 551.18 66.87 L 551.16 67.31 L 551.11 68.00 L 550.98 69.17 L 550.96 69.26 L 550.73 70.39 L 550.60 70.85 L 550.34 71.67 L 550.14 72.23 L 549.82 73.02 L 549.62 73.47 L 549.13 74.44 L 549.04 74.61 L 548.43 75.66 L 548.26 75.95 L 547.81 76.69 L 547.26 77.52 L 547.16 77.67 L 546.48 78.58 L 545.91 79.25 L 545.77 79.42 L 545.03 80.21 L 544.29 80.99 L 544.11 81.20 L 543.57 81.80 L 542.86 82.65 L 542.58 83.01 L 542.18 83.55 L 541.51 84.49 L 541.39 84.67 L 540.87 85.47 L 540.34 86.26 L 540.22 86.45 L 539.56 87.39 L 539.18 87.91 L 538.88 88.31 L 538.19 89.19 L 537.84 89.64 L 537.50 90.08 L 536.81 90.96 L 536.51 91.36 L 536.13 91.88 L 535.47 92.82 L 535.34 93.01 L 534.82 93.80 L 534.30 94.60 L 534.18 94.79 L 533.52 95.75 L 533.20 96.21 L 532.86 96.71 L 532.22 97.69 L 532.16 97.80 L 531.61 98.75 L 531.33 99.29 L 531.03 99.86 L 530.55 100.76 L 530.44 100.96 L 529.84 102.04 L 529.73 102.25 L 529.25 103.15 L 528.96 103.71 L 528.67 104.27 L 528.19 105.17 L 528.08 105.37 L 527.49 106.46 L 527.39 106.65 L 526.91 107.60 L 526.70 108.07 L 526.38 108.83 L 526.14 109.44 L 525.88 110.12 L 525.64 110.77 L 525.39 111.44 L 525.15 112.10 L 524.91 112.77 L 524.67 113.43 L 524.42 114.10 L 524.18 114.76 L 523.94 115.43 L 523.70 116.09 L 523.46 116.76 L 523.22 117.42 L 522.98 118.09 L 522.74 118.75 L 522.50 119.44 L 522.29 120.06 L 522.05 120.85 L 521.92 121.34 L 521.67 122.39 L 521.63 122.57 L 521.42 123.78 L 521.36 124.10 L 521.22 124.97 L 521.08 125.86 L 521.04 126.16 L 520.86 127.34 L 520.82 127.65 L 520.69 128.53 L 520.57 129.49 L 520.54 129.70 L 520.44 130.85 L 520.41 131.52 L 520.39 131.98 L 520.39 133.08 L 520.42 133.90 L 520.43 134.17 L 520.51 135.23 L 520.62 136.28 L 520.68 136.82 L 520.73 137.34 L 520.86 138.38 L 521.01 139.41 L 521.13 140.17 L 521.18 140.44 L 521.41 141.43 L 521.70 142.40 L 522.01 143.36 L 522.33 144.31 L 522.64 145.27 L 522.99 146.21 L 523.42 147.12 L 523.91 147.99 L 524.44 148.85 L 524.97 149.70 L 525.50 150.56 L 526.06 151.40 L 526.67 152.22 L 526.85 152.43 L 527.35 153.01 L 528.05 153.79 L 528.76 154.56 L 529.12 154.94 L 529.49 155.32 L 530.20 156.09 L 530.90 156.87 L 531.40 157.46 L 531.57 157.66 L 532.18 158.48 L 532.71 159.34 L 533.16 160.23 L 533.52 161.16 L 533.77 162.15 L 533.82 162.64 L 533.86 163.21 L 533.76 164.36 L 533.68 164.71 L 533.43 165.62 L 533.24 166.14 L 532.87 166.98 L 532.70 167.34 L 532.07 168.35 L 531.94 168.52 L 531.37 169.22 L 530.62 169.98 L 530.01 170.52 L 529.84 170.67 L 529.03 171.29 L 528.19 171.86 L 527.33 172.39 L 526.49 172.95 L 525.66 173.54 L 525.27 173.84 L 524.85 174.16 L 524.03 174.77 L 523.20 175.36 L 522.37 175.94 L 521.55 176.55 L 521.14 176.87 L 520.74 177.18 L 519.92 177.79 L 519.09 178.38 L 518.26 178.96 L 517.44 179.58 L 517.10 179.86 L 516.64 180.22 L 515.84 180.86 L 515.03 181.50 L 514.23 182.15 L 513.83 182.48 L 513.43 182.81 L 512.63 183.46 L 511.83 184.10 L 511.03 184.75 L 510.63 185.08 L 510.23 185.41 L 509.43 186.06 L 508.63 186.70 L 507.84 187.37 L 507.56 187.61 L 507.06 188.06 L 506.28 188.76 L 505.50 189.46 L 505.00 189.91 L 504.72 190.16 L 503.93 190.82 L 503.13 191.47 L 502.34 192.14 L 502.06 192.39 L 501.56 192.83 L 500.78 193.53 L 500.00 194.23 L 499.50 194.68 L 499.22 194.93 L 498.43 195.59 L 497.63 196.24 L 496.84 196.91 L 496.56 197.16 L 496.06 197.60 L 495.28 198.31 L 494.51 199.03 L 494.14 199.39 L 493.75 199.76 L 492.98 200.48 L 492.22 201.20 L 491.84 201.57 L 491.46 201.93 L 490.69 202.65 L 489.92 203.37 L 489.54 203.74 L 489.16 204.11 L 488.39 204.83 L 487.63 205.55 L 487.24 205.91 L 486.86 206.28 L 486.10 207.00 L 485.33 207.72 L 484.95 208.09 L 484.57 208.45 L 483.80 209.17 L 483.03 209.90 L 482.65 210.26 L 482.27 210.63 L 481.50 211.35 L 480.74 212.07 L 480.35 212.44 L 479.97 212.80 L 479.20 213.51 L 478.42 214.20 L 477.70 214.78 L 477.62 214.85 L 476.77 215.39 L 475.85 215.79 L 475.16 215.96 L 474.86 216.04 L 473.80 216.13 L 472.69 216.11 L 472.52 216.09 L 471.53 215.99 L 470.59 215.89 L 470.37 215.86 L 469.22 215.76 L 468.58 215.72 L 468.08 215.69 L 466.96 215.66 L 466.40 215.64 L 465.84 215.62 L 464.72 215.59 L 464.16 215.57 L 463.60 215.55 L 462.49 215.53 L 461.93 215.51 L 461.37 215.49 L 460.25 215.47 L 459.69 215.45 L 459.13 215.43 L 458.02 215.41 L 457.46 215.39 L 456.90 215.37 L 455.79 215.35 L 455.20 215.34 L 454.67 215.33 L 453.57 215.34 L 452.76 215.37 L 452.49 215.38 L 451.43 215.47 L 450.37 215.58 L 449.84 215.63 L 449.32 215.69 L 448.28 215.81 L 447.23 215.93 L 446.70 215.99 L 446.18 216.05 L 445.13 216.17 L 444.09 216.30 L 443.56 216.35 L 443.04 216.41 L 441.99 216.53 L 440.95 216.66 L 440.42 216.71 L 439.90 216.77 L 438.85 216.90 L 437.82 217.04 L 437.15 217.14 L 436.78 217.19 L 435.76 217.37 L 434.75 217.57 L 433.74 217.77 L 433.17 217.89 L 432.73 217.98 L 431.74 218.21 L 430.75 218.46 L 429.77 218.72 L 428.78 218.96 L 428.28 219.07 L 427.78 219.18 L 426.78 219.41 L 425.80 219.67 L 424.82 219.93 L 423.83 220.17 L 423.30 220.29 L 422.83 220.39 L 421.84 220.65 L 420.89 220.97 L 419.96 221.33 L 419.04 221.73 L 418.12 222.14 L 417.21 222.53 L 416.27 222.90 L 415.32 223.22 L 414.34 223.48 L 413.84 223.59 L 413.34 223.71 L 412.36 223.97 L 411.40 224.29 L 410.47 224.65 L 409.55 225.05 L 408.64 225.47 L 407.74 225.89 L 406.83 226.31 L 405.92 226.73 L 405.02 227.15 L 404.11 227.58 L 403.21 228.00 L 402.30 228.43 L 401.41 228.88 L 400.53 229.36 L 399.67 229.89 L 398.84 230.47 L 398.43 230.78 L 398.02 231.08 L 397.19 231.67 L 396.33 232.20 L 395.46 232.68 L 394.56 233.13 L 393.67 233.59 L 392.79 234.07 L 391.94 234.60 L 391.11 235.18 L 390.70 235.49 L 390.29 235.79 L 389.46 236.38 L 388.60 236.92 L 387.74 237.42 L 386.87 237.92 L 386.01 238.46 L 385.19 239.05 L 384.86 239.31 L 384.38 239.69 L 383.58 240.33 L 382.77 240.97 L 381.97 241.62 L 381.57 241.95 L 381.17 242.28 L 380.37 242.93 L 379.57 243.57 L 378.78 244.24 L 378.50 244.48 L 378.00 244.93 L 377.22 245.63 L 376.45 246.33 L 375.95 246.78 L 375.67 247.03 L 374.87 247.70 L 374.08 248.36 L 373.30 249.06 L 373.21 249.16 L 372.55 249.82 L 371.81 250.59 L 371.28 251.16 L 371.07 251.38 L 370.32 252.14 L 369.56 252.87 L 369.18 253.24 L 368.81 253.61 L 368.05 254.35 L 367.30 255.11 L 367.12 255.31 L 366.57 255.92 L 365.85 256.75 L 365.52 257.16 L 365.15 257.61 L 364.45 258.48 L 364.11 258.92 L 363.76 259.36 L 363.06 260.23 L 362.72 260.67 L 362.37 261.11 L 361.67 261.98 L 361.33 262.42 L 360.98 262.87 L 360.29 263.75 L 360.00 264.15 L 359.62 264.66 L 358.95 265.61 L 358.83 265.79 L 358.31 266.59 L 357.79 267.38 L 357.66 267.58 L 357.00 268.53 L 356.67 269.01 L 356.34 269.48 L 355.69 270.44 L 355.57 270.63 L 355.05 271.44 L 354.58 272.19 L 354.42 272.45 L 353.79 273.47 L 353.64 273.73 L 353.17 274.50 L 352.72 275.27 L 352.55 275.55 L 351.94 276.60 L 351.86 276.77 L 351.37 277.73 L 351.15 278.20 L 350.83 278.95 L 350.57 279.58 L 350.31 280.20 L 349.99 280.95 L 349.77 281.42 L 349.30 282.38 L 349.20 282.56 L 348.61 283.66 L 348.52 283.84 L 348.04 284.80 L 347.83 285.27 L 347.51 286.03 L 347.27 286.63 L 347.01 287.32 L 346.76 287.97 L 346.52 288.64 L 346.28 289.30 L 346.04 289.97 L 345.79 290.63 L 345.55 291.29 L 345.31 291.96 L 345.07 292.62 L 344.83 293.29 L 344.58 293.95 L 344.34 294.62 L 344.10 295.28 L 343.87 295.94 L 343.63 296.63 L 343.42 297.25 L 343.18 298.04 L 343.04 298.53 L 342.79 299.57 L 342.75 299.77 L 342.50 300.99 L 342.46 301.22 L 342.24 302.22 L 342.11 302.83 L 341.97 303.45 L 341.76 304.46 L 341.72 304.67 L 341.51 305.87 L 341.46 306.18 L 341.32 307.06 L 341.18 307.95 L 341.13 308.25 L 340.96 309.43 L 340.91 309.74 L 340.79 310.62 L 340.67 311.58 L 340.64 311.79 L 340.54 312.94 L 340.50 313.58 L 340.46 314.08 L 340.42 315.21 L 340.39 315.71 L 340.35 316.34 L 340.26 317.48 L 340.24 317.76 L 340.16 318.63 L 340.10 319.77 L 340.10 319.83 L 340.10 320.87 L 340.13 321.96 L 340.14 322.28 L 340.16 323.05 L 340.17 324.15 L 340.16 324.68 L 340.14 325.26 L 340.13 326.37 L 340.12 326.96 L 340.11 327.49 L 340.12 328.58 L 340.15 329.40 L 340.16 329.67 L 340.24 330.73 L 340.35 331.79 L 340.41 332.33 L 340.46 332.84 L 340.59 333.88 L 340.73 334.92 L 340.83 335.59 L 340.88 335.95 L 341.06 336.97 L 341.26 337.98 L 341.46 338.99 L 341.55 339.50 L 341.64 340.01 L 341.84 341.02 L 342.05 342.03 L 342.25 343.04 L 342.37 343.63 L 342.46 344.04 L 342.70 345.03 L 342.99 346.00 L 343.30 346.96 L 343.60 347.93 L 343.85 348.91 L 343.97 349.42 L 344.08 349.91 L 344.34 350.89 L 344.66 351.85 L 345.02 352.78 L 345.42 353.70 L 345.84 354.61 L 346.26 355.51 L 346.68 356.42 L 347.09 357.33 L 347.49 358.25 L 347.86 359.18 L 348.18 360.14 L 348.45 361.11 L 348.61 361.75 L 348.70 362.10 L 349.02 363.05 L 349.45 363.96 L 349.97 364.81 L 350.18 365.11 L 350.56 365.64 L 351.14 366.48 L 351.66 367.34 L 352.14 368.22 L 352.59 369.11 L 353.02 370.01 L 353.45 370.92 L 353.90 371.81 L 354.38 372.69 L 354.91 373.55 L 355.49 374.38 L 355.78 374.76 L 356.11 375.19 L 356.72 376.01 L 357.31 376.84 L 357.89 377.67 L 358.50 378.49 L 358.83 378.93 L 359.12 379.31 L 359.70 380.14 L 360.20 381.01 L 360.62 381.92 L 360.93 382.88 L 361.09 383.77 L 361.11 383.90 L 361.14 384.98 L 361.02 385.99 L 360.99 386.16 L 360.58 387.41 L 360.56 387.46 L 360.02 388.57 L 359.84 388.90 L 359.41 389.64 L 358.96 390.42 L 358.80 390.69 L 358.19 391.74 L 358.09 391.93 L 357.59 392.84 L 357.30 393.39 L 357.01 393.95 L 356.52 394.86 L 356.42 395.05 L 355.80 396.10 L 355.64 396.38 L 355.19 397.14 L 354.73 397.90 L 354.57 398.18 L 353.96 399.23 L 353.85 399.42 L 353.36 400.33 L 353.07 400.88 L 352.78 401.45 L 352.30 402.35 L 352.19 402.55 L 351.59 403.63 L 351.49 403.83 L 351.00 404.73 L 350.71 405.29 L 350.42 405.85 L 349.94 406.76 L 349.83 406.96 L 349.24 408.04 L 349.13 408.24 L 348.65 409.14 L 348.36 409.70 L 348.07 410.26 L 347.59 411.17 L 347.48 411.37 L 346.88 412.45 L 346.77 412.65 L 346.29 413.55 L 346.00 414.11 L 345.71 414.67 L 345.23 415.58 L 345.12 415.78 L 344.53 416.87 L 344.43 417.05 L 343.95 418.00 L 343.72 418.49 L 343.40 419.19 L 343.08 419.89 L 342.85 420.37 L 342.37 421.32 L 342.28 421.51 L 341.68 422.60 L 341.59 422.79 L 341.11 423.74 L 340.88 424.22 L 340.56 424.93 L 340.24 425.63 L 340.01 426.11 L 339.53 427.06 L 339.43 427.25 L 338.84 428.34 L 338.75 428.53 L 338.27 429.48 L 338.06 429.95 L 337.74 430.70 L 337.48 431.33 L 337.22 431.96 L 336.89 432.70 L 336.68 433.17 L 336.20 434.13 L 336.11 434.31 L 335.52 435.41 L 335.42 435.60 L 334.95 436.55 L 334.74 437.02 L 334.41 437.78 L 334.17 438.39 L 333.91 439.06 L 333.65 439.73 L 333.40 440.34 L 333.08 441.10 L 332.87 441.57 L 332.40 442.52 L 332.30 442.71 L 331.71 443.81 L 331.61 443.99 L 331.14 444.95 L 330.93 445.41 L 330.61 446.17 L 330.37 446.78 L 330.11 447.46 L 329.86 448.12 L 329.62 448.79 L 329.38 449.45 L 329.13 450.11 L 328.89 450.78 L 328.65 451.44 L 328.41 452.11 L 328.16 452.77 L 327.91 453.44 L 327.67 454.07 L 327.36 454.80 L 327.14 455.30 L 326.52 456.30 L 326.51 456.31 Z" fill="#5b0612" fill-rule="evenodd"/></svg>